<svg width="125" height="20" viewBox="0 0 125 20" fill="none" xmlns="http://www.w3.org/2000/svg">
<path d="M10.272 18.6241C7.90402 18.6241 5.87735 17.9414 4.19202 16.5761C3.14668 17.6854 2.30402 18.2401 1.66402 18.2401C1.04535 18.2401 0.576018 17.7707 0.256018 16.8321C0.0853509 16.2774 1.75796e-05 15.7441 1.75796e-05 15.2321C1.75796e-05 14.4641 0.149351 13.5681 0.448018 12.5441C0.832018 11.2427 1.32268 10.5921 1.92002 10.5921C2.30402 10.5921 2.62402 11.0827 2.88002 12.0641L3.39202 14.1441C3.60535 14.5281 3.85068 14.8907 4.12802 15.2321C4.59735 14.5707 5.09868 13.7814 5.63202 12.8641C6.18668 11.9254 6.78402 10.8587 7.42402 9.66406C9.34402 6.1014 10.6987 4.32006 11.488 4.32006C12.064 4.32006 12.352 4.64006 12.352 5.28006C12.352 5.66406 12.2454 5.85606 12.032 5.85606C11.7974 5.85606 11.68 5.7174 11.68 5.44006L11.712 5.28006C11.7334 5.2374 11.744 5.18406 11.744 5.12006H11.712C11.2854 5.12006 10.272 6.68806 8.67202 9.82406C7.52002 12.1067 6.22935 14.1334 4.80002 15.9041C6.25068 17.1627 7.97868 17.7921 9.98402 17.7921C12.3947 17.7921 14.4747 17.0241 16.224 15.4881C18.1014 13.8881 19.04 11.9147 19.04 9.56806C19.04 7.90406 18.4214 6.4534 17.184 5.21606C16.0747 4.10673 14.6667 3.3494 12.96 2.94406C12.4907 2.8374 11.9894 2.75206 11.456 2.68806C10.944 2.62406 10.4107 2.59206 9.85602 2.59206C7.82935 2.59206 6.05868 3.00806 4.54402 3.84006C2.62402 4.8854 1.66402 6.11206 1.66402 7.52006C1.66402 8.16006 1.85602 8.67206 2.24002 9.05606L2.81602 9.63206C2.81602 9.73873 2.72002 9.79206 2.52802 9.79206C2.03735 9.79206 1.58935 9.5574 1.18402 9.08806C0.778684 8.61873 0.576018 8.12806 0.576018 7.61606C0.576018 5.76006 1.79202 4.2454 4.22402 3.07206C5.90935 2.2614 7.82935 1.85606 9.98402 1.85606C13.504 1.85606 16.1707 2.78406 17.984 4.64006C19.4134 6.0694 20.128 7.85073 20.128 9.98406C20.128 12.6294 19.1254 14.7627 17.12 16.3841C15.2854 17.8774 13.0027 18.6241 10.272 18.6241ZM1.98402 17.5041C2.28268 17.5041 2.80535 17.0027 3.55202 16.0001C3.14668 15.6374 2.78402 15.1147 2.46402 14.4321C2.16535 13.7494 1.89868 12.9174 1.66402 11.9361C1.28002 12.9814 1.08802 13.9841 1.08802 14.9441C1.08802 15.3494 1.15202 15.8294 1.28002 16.3841C1.45068 17.1307 1.68535 17.5041 1.98402 17.5041ZM26.0443 6.62406C25.8523 6.62406 25.6283 6.52806 25.3723 6.33606C25.1376 6.12273 25.0203 5.92006 25.0203 5.72806C25.0203 5.53606 25.1269 5.35473 25.3403 5.18406C25.5749 4.99206 25.8416 4.83206 26.1403 4.70406C26.4389 4.57606 26.6949 4.51206 26.9083 4.51206C27.0363 4.51206 27.1003 4.57606 27.1003 4.70406C27.1003 4.7894 26.9829 4.9494 26.7483 5.18406C26.4923 5.44006 26.3536 5.5894 26.3323 5.63206L26.3003 6.20806C26.3003 6.4854 26.2149 6.62406 26.0443 6.62406ZM21.8203 17.4081C21.0309 17.4081 20.6363 16.9814 20.6363 16.1281C20.6363 14.9761 21.4256 12.7574 23.0043 9.47206C23.6016 8.17073 24.2949 7.52006 25.0843 7.52006C25.2976 7.52006 25.4043 7.5734 25.4043 7.68006C22.8229 12.3734 21.5323 15.2427 21.5323 16.2881C21.5323 16.6294 21.6709 16.8001 21.9483 16.8001C22.0763 16.8001 22.2576 16.7254 22.4923 16.5761C22.7269 16.4054 22.9723 16.2241 23.2283 16.0321C23.4843 15.8187 23.6976 15.6374 23.8683 15.4881C24.0389 15.3174 24.1243 15.2321 24.1243 15.2321C24.1669 15.2321 24.2096 15.3494 24.2523 15.5841C24.2523 15.8401 24.1029 16.1174 23.8043 16.4161C23.5056 16.6934 23.1643 16.9281 22.7803 17.1201C22.4176 17.3121 22.0976 17.4081 21.8203 17.4081ZM25.1408 18.0481C24.1168 18.0481 23.6048 17.7281 23.6048 17.0881C23.6048 16.6614 23.8821 16.2667 24.4368 15.9041C24.8208 15.6694 25.3008 15.4987 25.8768 15.3921C26.2821 15.3067 26.6448 15.2321 26.9648 15.1681C27.2848 15.1041 27.5621 15.0294 27.7968 14.9441L28.8528 14.5921C28.8741 14.5281 28.8848 14.4641 28.8848 14.4001C28.9061 14.3361 28.9168 14.2721 28.9168 14.2081C28.9168 13.7174 28.6288 13.0134 28.0528 12.0961C27.4554 11.1787 27.1568 10.5067 27.1568 10.0801C27.1568 9.56806 27.3274 9.09873 27.6688 8.67206C28.0101 8.2454 28.4368 7.90406 28.9488 7.64806C29.4821 7.37073 30.0048 7.23206 30.5168 7.23206C31.3701 7.23206 31.7968 7.52006 31.7968 8.09606C31.7968 8.8214 31.5834 9.18406 31.1568 9.18406C30.9861 9.18406 30.8794 9.00273 30.8368 8.64006C30.8154 8.29873 30.7088 8.12806 30.5168 8.12806C30.2821 8.12806 30.0154 8.2454 29.7168 8.48006C29.4181 8.6934 29.1621 8.96006 28.9488 9.28006C28.7568 9.57873 28.6608 9.85606 28.6608 10.1121C28.6608 10.3467 28.8528 10.8481 29.2368 11.6161C29.5994 12.4054 29.7808 12.9921 29.7808 13.3761C29.7808 13.4187 29.7701 13.4827 29.7488 13.5681C29.7488 13.6321 29.7381 13.7174 29.7168 13.8241C29.6954 13.9094 29.6741 13.9947 29.6528 14.0801C29.6528 14.1654 29.6528 14.2294 29.6528 14.2721C29.7168 14.2081 29.8341 14.1227 30.0048 14.0161C30.1968 13.9094 30.3888 13.8134 30.5808 13.7281C30.7728 13.6214 30.9008 13.5681 30.9648 13.5681C31.0074 13.5681 31.0288 13.5787 31.0288 13.6001C31.0288 13.7067 30.9328 13.8454 30.7408 14.0161C30.5701 14.1867 30.3674 14.3467 30.1328 14.4961C29.9194 14.6454 29.7274 14.7521 29.5568 14.8161V14.8801C29.5141 15.0721 29.3968 15.3174 29.2048 15.6161C29.0128 15.9147 28.7994 16.2027 28.5648 16.4801C28.3301 16.7574 28.1061 16.9707 27.8928 17.1201C27.0821 17.7387 26.1648 18.0481 25.1408 18.0481ZM25.1088 17.4721C25.5354 17.4721 25.9834 17.3761 26.4528 17.1841C26.9221 16.9921 27.3488 16.7361 27.7328 16.4161C28.1381 16.0747 28.4261 15.7227 28.5968 15.3601C28.1701 15.5094 27.7754 15.6587 27.4128 15.8081C27.0501 15.9361 26.7194 16.0534 26.4208 16.1601C25.3328 16.5654 24.7888 16.9494 24.7888 17.3121C24.7888 17.4187 24.8954 17.4721 25.1088 17.4721ZM32.661 17.4401C31.7864 17.4401 31.349 16.8747 31.349 15.7441C31.349 14.4854 31.7757 13.1094 32.629 11.6161C34.1224 8.90673 35.5624 7.55206 36.949 7.55206C37.3117 7.55206 37.6317 7.65873 37.909 7.87206C38.485 7.8934 38.773 8.1814 38.773 8.73606C38.773 9.18406 38.6664 9.66406 38.453 10.1761C38.197 10.8374 37.8984 11.1681 37.557 11.1681C37.1944 11.1681 37.013 11.0081 37.013 10.6881C37.013 10.4534 37.109 10.1334 37.301 9.72806C37.4717 9.28006 37.557 8.97073 37.557 8.80006C37.557 8.65073 37.4504 8.57606 37.237 8.57606C36.1917 8.57606 35.0504 9.61073 33.813 11.6801C32.6397 13.5787 32.053 15.0721 32.053 16.1601C32.053 16.7147 32.2984 16.9921 32.789 16.9921C33.237 16.9921 33.909 16.5441 34.805 15.6481C35.7224 14.7734 36.2664 14.3361 36.437 14.3361C36.5224 14.3361 36.565 14.3681 36.565 14.4321C36.565 14.5174 36.437 14.7414 36.181 15.1041C35.0077 16.6614 33.8344 17.4401 32.661 17.4401ZM39.824 17.7281C38.864 17.7281 38.384 17.1734 38.384 16.0641C38.384 14.4641 38.9814 12.4907 40.176 10.1441C41.1787 8.1814 42.0854 7.20006 42.896 7.20006C43.0667 7.20006 43.2587 7.26406 43.472 7.39206L43.824 7.58406L43.888 7.45606C43.9094 7.2854 44.0054 7.05073 44.176 6.75206C44.304 6.7094 44.4 6.68806 44.464 6.68806C44.9974 6.68806 45.264 7.1894 45.264 8.19206C45.264 8.29873 45.264 8.4374 45.264 8.60806C45.264 8.7574 45.2534 8.93873 45.232 9.15206C45.2107 9.3654 45.1894 9.5574 45.168 9.72806C45.168 9.8774 45.168 10.0054 45.168 10.1121C45.168 10.4107 45.392 10.5601 45.84 10.5601C45.9254 10.5601 46.064 10.5281 46.256 10.4641C46.448 10.4001 46.5974 10.3681 46.704 10.3681C46.896 10.3681 46.992 10.4321 46.992 10.5601C46.992 10.9014 46.6187 11.0721 45.872 11.0721C45.424 11.0721 45.1147 10.9974 44.944 10.8481C44.56 12.2774 43.9627 13.6747 43.152 15.0401C42.064 16.8321 40.9547 17.7281 39.824 17.7281ZM40.016 16.9601C41.104 16.9601 42.256 15.7227 43.472 13.2481C44.0267 12.0961 44.3254 11.2214 44.368 10.6241C43.984 10.4107 43.7494 9.95206 43.664 9.24806C43.5574 8.6294 43.4294 8.32006 43.28 8.32006C42.704 8.32006 42.0107 9.12006 41.2 10.7201C40.0267 12.9814 39.44 14.7734 39.44 16.0961C39.44 16.6721 39.632 16.9601 40.016 16.9601ZM46.7815 17.4721C46.3975 17.4721 46.2055 17.1947 46.2055 16.6401C46.2055 15.8081 46.4402 14.6881 46.9095 13.2801L48.0615 9.88806C48.1469 9.6534 48.1895 9.44006 48.1895 9.24806V9.15206C48.1682 9.08806 48.1469 9.06673 48.1255 9.08806C47.9975 9.1094 47.9335 9.0454 47.9335 8.89606C47.9335 8.64006 48.1575 8.19206 48.6055 7.55206C48.7762 7.3174 49.0322 7.20006 49.3735 7.20006C49.7789 7.20006 49.9815 7.3494 49.9815 7.64806C49.9815 7.9894 49.7469 8.80006 49.2775 10.0801L48.3175 12.6081C47.7842 14.0801 47.5175 15.1041 47.5175 15.6801C47.5175 15.9574 47.6029 16.0961 47.7735 16.0961C48.2215 16.0961 49.0109 15.1467 50.1415 13.2481C51.0162 11.7974 51.6562 10.5814 52.0615 9.60006C51.9335 8.83206 51.8695 8.20273 51.8695 7.71206C51.8695 6.85873 52.0295 6.3254 52.3495 6.11206C52.5842 5.9414 52.8189 5.85606 53.0535 5.85606C53.4162 5.85606 53.5975 6.04806 53.5975 6.43206C53.5975 6.7094 53.5442 7.08273 53.4375 7.55206C53.3309 8.00006 53.2029 8.44806 53.0535 8.89606C52.9255 9.32273 52.7869 9.6534 52.6375 9.88806C52.8082 10.6347 53.1709 11.0081 53.7255 11.0081C54.0669 11.0081 54.4082 10.9014 54.7495 10.6881L54.8455 10.7201V10.7841C54.8455 10.9761 54.6642 11.1467 54.3015 11.2961C53.9389 11.4241 53.6402 11.4881 53.4055 11.4881C53.1709 11.4881 52.9362 11.4027 52.7015 11.2321C52.4669 11.0614 52.3495 10.8587 52.3495 10.6241L49.8855 14.6561C48.6055 16.5334 47.5709 17.4721 46.7815 17.4721ZM55.121 17.5361C53.969 17.5361 53.393 16.8001 53.393 15.3281V15.1681C53.393 13.1414 54.2677 11.1254 56.017 9.12006C56.849 8.16006 57.5637 7.68006 58.161 7.68006C58.3317 7.68006 58.4597 7.72273 58.545 7.80806C58.5237 7.23206 58.737 6.94406 59.185 6.94406C59.4837 6.94406 59.633 7.52006 59.633 8.67206C59.633 11.4881 58.9184 12.8961 57.489 12.8961C56.6357 12.8961 55.8997 12.5867 55.281 11.9681C54.6197 13.3121 54.289 14.5281 54.289 15.6161C54.289 16.4907 54.577 16.9281 55.153 16.9281C55.409 16.9281 55.7184 16.7894 56.081 16.5121C56.465 16.2134 56.8384 15.8827 57.201 15.5201C57.5637 15.1361 57.8624 14.8054 58.097 14.5281C58.353 14.2294 58.481 14.0801 58.481 14.0801C58.5664 14.0801 58.609 14.1441 58.609 14.2721C58.609 14.5281 58.4917 14.8374 58.257 15.2001C58.0224 15.5414 57.7237 15.8827 57.361 16.2241C57.0197 16.5654 56.6677 16.8641 56.305 17.1201C55.9424 17.3547 55.633 17.4934 55.377 17.5361H55.121ZM57.233 12.2241C57.6597 12.2241 58.001 11.8827 58.257 11.2001C58.4704 10.6881 58.577 10.1547 58.577 9.60006V9.08806C58.577 8.8534 58.5664 8.6934 58.545 8.60806C58.545 8.5014 58.545 8.48006 58.545 8.54406C57.265 9.0134 56.2837 9.9734 55.601 11.4241C56.3264 11.9574 56.8704 12.2241 57.233 12.2241ZM58.6785 17.4721C58.4865 17.4721 58.3905 17.3867 58.3905 17.2161C58.3905 17.0241 58.9452 15.7761 60.0545 13.4721C61.2492 10.9547 61.9105 9.3334 62.0385 8.60806C62.0812 8.3094 62.2412 8.01073 62.5185 7.71206C62.8172 7.39206 63.1052 7.23206 63.3825 7.23206C63.5745 7.23206 63.6705 7.3494 63.6705 7.58406C63.6705 7.88273 63.2972 8.83206 62.5505 10.4321L61.1105 13.4721C61.8359 12.4694 62.4119 11.6694 62.8385 11.0721C63.2865 10.4747 63.5852 10.0694 63.7345 9.85606C65.1212 8.2134 66.2305 7.39206 67.0625 7.39206C67.5319 7.39206 67.7665 7.7014 67.7665 8.32006C67.7665 9.0454 67.6279 9.40806 67.3505 9.40806C67.1585 9.40806 67.0625 9.18406 67.0625 8.73606C67.0625 8.60806 66.9985 8.54406 66.8705 8.54406C66.5932 8.54406 66.1772 8.7254 65.6225 9.08806C63.5105 10.4961 61.6652 12.8854 60.0865 16.2561C59.7025 17.0667 59.2332 17.4721 58.6785 17.4721ZM77.7178 19.1361C76.1818 19.1361 74.7844 18.8374 73.5258 18.2401C71.9044 17.4721 71.0938 16.4267 71.0938 15.1041C71.0938 14.7841 71.1471 14.4641 71.2538 14.1441C72.1071 11.7121 74.3044 9.85606 77.8458 8.57606C77.1204 7.87206 76.7578 7.08273 76.7578 6.20806C76.7578 4.5654 77.8564 3.2854 80.0538 2.36806C81.2698 1.83473 82.6458 1.56806 84.1818 1.56806C85.1844 1.56806 85.9631 1.7174 86.5178 2.01606C87.4564 1.44006 88.1284 1.15206 88.5338 1.15206C88.6618 1.15206 88.7258 1.19473 88.7258 1.28006C88.7258 1.47206 88.5444 1.66406 88.1818 1.85606C88.0324 1.89873 87.8938 1.95206 87.7658 2.01606C87.6378 2.08006 87.4991 2.14406 87.3498 2.20806L87.0298 2.43206C87.3924 2.79473 87.5738 3.2534 87.5738 3.80806C87.5738 4.42673 87.3711 4.99206 86.9658 5.50406C86.5604 5.99473 86.0591 6.24006 85.4618 6.24006C84.5444 6.24006 84.0858 5.85606 84.0858 5.08806C84.0858 4.2774 84.5871 3.45606 85.5898 2.62406C85.2484 2.49606 84.8004 2.43206 84.2458 2.43206C82.7524 2.43206 81.4191 2.73073 80.2458 3.32806C78.7524 4.0534 78.0058 5.08806 78.0058 6.43206C78.0058 7.13606 78.2938 7.74406 78.8698 8.25606C79.9364 7.9574 80.8858 7.80806 81.7178 7.80806C82.4431 7.80806 83.0404 7.88273 83.5098 8.03206C84.2778 8.2454 84.6618 8.58673 84.6618 9.05606C84.6618 9.50406 84.3631 9.83473 83.7658 10.0481C83.2964 10.2187 82.8164 10.3041 82.3258 10.3041C80.8964 10.3041 79.6484 9.93073 78.5818 9.18406C77.0671 9.61073 75.7444 10.3041 74.6138 11.2641C73.2484 12.4161 72.5658 13.6854 72.5658 15.0721C72.5658 17.2267 74.4004 18.3041 78.0698 18.3041C79.8404 18.3041 81.4618 17.9841 82.9338 17.3441C84.6191 16.6187 85.8244 15.5521 86.5498 14.1441C86.7418 13.7814 86.8378 13.4721 86.8378 13.2161C86.8378 12.8961 86.6671 12.5654 86.3258 12.2241C85.9844 11.8827 85.8138 11.6907 85.8138 11.6481C85.8138 11.4134 86.0698 11.2961 86.5818 11.2961C87.0084 11.2961 87.3391 11.4774 87.5738 11.8401C87.8298 12.1814 87.9578 12.5761 87.9578 13.0241C87.9578 14.1761 87.2964 15.2961 85.9738 16.3841C84.8858 17.2587 83.7018 17.9201 82.4218 18.3681C80.9284 18.8801 79.3604 19.1361 77.7178 19.1361ZM85.3658 5.40806C85.6644 5.40806 85.9311 5.21606 86.1658 4.83206C86.4004 4.44806 86.5178 4.09606 86.5178 3.77606C86.5178 3.4774 86.4111 3.23206 86.1978 3.04006C85.2804 3.7654 84.8218 4.39473 84.8218 4.92806C84.8218 5.24806 85.0031 5.40806 85.3658 5.40806ZM82.4858 9.56806C83.1684 9.56806 83.5098 9.40806 83.5098 9.08806C83.5098 8.8534 82.9444 8.73606 81.8138 8.73606C81.1951 8.73606 80.5124 8.80006 79.7658 8.92806C80.6618 9.35473 81.5684 9.56806 82.4858 9.56806ZM88.5158 18.0481C87.4918 18.0481 86.9798 17.7281 86.9798 17.0881C86.9798 16.6614 87.2571 16.2667 87.8118 15.9041C88.1958 15.6694 88.6758 15.4987 89.2518 15.3921C89.6571 15.3067 90.0198 15.2321 90.3398 15.1681C90.6598 15.1041 90.9371 15.0294 91.1718 14.9441L92.2278 14.5921C92.2491 14.5281 92.2598 14.4641 92.2598 14.4001C92.2811 14.3361 92.2918 14.2721 92.2918 14.2081C92.2918 13.7174 92.0038 13.0134 91.4278 12.0961C90.8304 11.1787 90.5318 10.5067 90.5318 10.0801C90.5318 9.56806 90.7024 9.09873 91.0438 8.67206C91.3851 8.2454 91.8118 7.90406 92.3238 7.64806C92.8571 7.37073 93.3798 7.23206 93.8918 7.23206C94.7451 7.23206 95.1718 7.52006 95.1718 8.09606C95.1718 8.8214 94.9584 9.18406 94.5318 9.18406C94.3611 9.18406 94.2544 9.00273 94.2118 8.64006C94.1904 8.29873 94.0838 8.12806 93.8918 8.12806C93.6571 8.12806 93.3904 8.2454 93.0918 8.48006C92.7931 8.6934 92.5371 8.96006 92.3238 9.28006C92.1318 9.57873 92.0358 9.85606 92.0358 10.1121C92.0358 10.3467 92.2278 10.8481 92.6118 11.6161C92.9744 12.4054 93.1558 12.9921 93.1558 13.3761C93.1558 13.4187 93.1451 13.4827 93.1238 13.5681C93.1238 13.6321 93.1131 13.7174 93.0918 13.8241C93.0704 13.9094 93.0491 13.9947 93.0278 14.0801C93.0278 14.1654 93.0278 14.2294 93.0278 14.2721C93.0918 14.2081 93.2091 14.1227 93.3798 14.0161C93.5718 13.9094 93.7638 13.8134 93.9558 13.7281C94.1478 13.6214 94.2758 13.5681 94.3398 13.5681C94.3824 13.5681 94.4038 13.5787 94.4038 13.6001C94.4038 13.7067 94.3078 13.8454 94.1158 14.0161C93.9451 14.1867 93.7424 14.3467 93.5078 14.4961C93.2944 14.6454 93.1024 14.7521 92.9318 14.8161V14.8801C92.8891 15.0721 92.7718 15.3174 92.5798 15.6161C92.3878 15.9147 92.1744 16.2027 91.9398 16.4801C91.7051 16.7574 91.4811 16.9707 91.2678 17.1201C90.4571 17.7387 89.5398 18.0481 88.5158 18.0481ZM88.4838 17.4721C88.9104 17.4721 89.3584 17.3761 89.8278 17.1841C90.2971 16.9921 90.7238 16.7361 91.1078 16.4161C91.5131 16.0747 91.8011 15.7227 91.9718 15.3601C91.5451 15.5094 91.1504 15.6587 90.7878 15.8081C90.4251 15.9361 90.0944 16.0534 89.7958 16.1601C88.7078 16.5654 88.1638 16.9494 88.1638 17.3121C88.1638 17.4187 88.2704 17.4721 88.4838 17.4721ZM96.036 17.4401C95.1614 17.4401 94.724 16.8747 94.724 15.7441C94.724 14.4854 95.1507 13.1094 96.004 11.6161C97.4974 8.90673 98.9374 7.55206 100.324 7.55206C100.687 7.55206 101.007 7.65873 101.284 7.87206C101.86 7.8934 102.148 8.1814 102.148 8.73606C102.148 9.18406 102.041 9.66406 101.828 10.1761C101.572 10.8374 101.273 11.1681 100.932 11.1681C100.569 11.1681 100.388 11.0081 100.388 10.6881C100.388 10.4534 100.484 10.1334 100.676 9.72806C100.847 9.28006 100.932 8.97073 100.932 8.80006C100.932 8.65073 100.825 8.57606 100.612 8.57606C99.5667 8.57606 98.4254 9.61073 97.188 11.6801C96.0147 13.5787 95.428 15.0721 95.428 16.1601C95.428 16.7147 95.6734 16.9921 96.164 16.9921C96.612 16.9921 97.284 16.5441 98.18 15.6481C99.0974 14.7734 99.6414 14.3361 99.812 14.3361C99.8974 14.3361 99.94 14.3681 99.94 14.4321C99.94 14.5174 99.812 14.7414 99.556 15.1041C98.3827 16.6614 97.2094 17.4401 96.036 17.4401ZM103.199 17.7281C102.239 17.7281 101.759 17.1734 101.759 16.0641C101.759 14.4641 102.356 12.4907 103.551 10.1441C104.554 8.1814 105.46 7.20006 106.271 7.20006C106.442 7.20006 106.634 7.26406 106.847 7.39206L107.199 7.58406L107.263 7.45606C107.284 7.2854 107.38 7.05073 107.551 6.75206C107.679 6.7094 107.775 6.68806 107.839 6.68806C108.372 6.68806 108.639 7.1894 108.639 8.19206C108.639 8.29873 108.639 8.4374 108.639 8.60806C108.639 8.7574 108.628 8.93873 108.607 9.15206C108.586 9.3654 108.564 9.5574 108.543 9.72806C108.543 9.8774 108.543 10.0054 108.543 10.1121C108.543 10.4107 108.767 10.5601 109.215 10.5601C109.3 10.5601 109.439 10.5281 109.631 10.4641C109.823 10.4001 109.972 10.3681 110.079 10.3681C110.271 10.3681 110.367 10.4321 110.367 10.5601C110.367 10.9014 109.994 11.0721 109.247 11.0721C108.799 11.0721 108.49 10.9974 108.319 10.8481C107.935 12.2774 107.338 13.6747 106.527 15.0401C105.439 16.8321 104.33 17.7281 103.199 17.7281ZM103.391 16.9601C104.479 16.9601 105.631 15.7227 106.847 13.2481C107.402 12.0961 107.7 11.2214 107.743 10.6241C107.359 10.4107 107.124 9.95206 107.039 9.24806C106.932 8.6294 106.804 8.32006 106.655 8.32006C106.079 8.32006 105.386 9.12006 104.575 10.7201C103.402 12.9814 102.815 14.7734 102.815 16.0961C102.815 16.6721 103.007 16.9601 103.391 16.9601ZM108.429 17.4721C108.237 17.4721 108.141 17.3867 108.141 17.2161C108.141 17.0241 108.695 15.7761 109.805 13.4721C110.999 10.9547 111.661 9.3334 111.789 8.60806C111.831 8.3094 111.991 8.01073 112.269 7.71206C112.567 7.39206 112.855 7.23206 113.133 7.23206C113.325 7.23206 113.421 7.3494 113.421 7.58406C113.421 7.88273 113.047 8.83206 112.301 10.4321L110.861 13.4721C111.586 12.4694 112.162 11.6694 112.589 11.0721C113.037 10.4747 113.335 10.0694 113.485 9.85606C114.871 8.2134 115.981 7.39206 116.813 7.39206C117.282 7.39206 117.517 7.7014 117.517 8.32006C117.517 9.0454 117.378 9.40806 117.101 9.40806C116.909 9.40806 116.813 9.18406 116.813 8.73606C116.813 8.60806 116.749 8.54406 116.621 8.54406C116.343 8.54406 115.927 8.7254 115.373 9.08806C113.261 10.4961 111.415 12.8854 109.837 16.2561C109.453 17.0667 108.983 17.4721 108.429 17.4721ZM117.329 17.4081C116.604 17.4081 116.241 16.9814 116.241 16.1281C116.241 15.6801 116.327 15.1147 116.497 14.4321C116.689 13.7281 116.977 12.9174 117.361 12.0001L119.089 7.84006C119.004 7.84006 118.908 7.84006 118.801 7.84006C118.695 7.81873 118.556 7.80806 118.385 7.80806L117.681 7.77606C117.447 7.77606 117.329 7.6374 117.329 7.36006C117.329 7.23206 117.511 7.14673 117.873 7.10406L118.577 7.04006C118.791 7.01873 118.972 6.9974 119.121 6.97606C119.292 6.95473 119.431 6.94406 119.537 6.94406C119.772 6.36806 120.081 5.6534 120.465 4.80006C120.871 3.94673 121.351 2.9654 121.905 1.85606C122.673 0.61873 123.399 6.29425e-05 124.081 6.29425e-05C124.252 6.29425e-05 124.337 0.0747299 124.337 0.224064C124.337 0.373397 123.815 1.38673 122.769 3.26406C122.215 4.28806 121.767 5.1094 121.425 5.72806C121.105 6.34673 120.903 6.7734 120.817 7.00806C122.417 7.00806 123.217 7.1254 123.217 7.36006C123.217 7.68006 122.268 7.84006 120.369 7.84006C118.215 12.9601 117.137 15.7867 117.137 16.3201C117.137 16.6614 117.265 16.8321 117.521 16.8321C117.735 16.8321 118.119 16.5867 118.673 16.0961C119.164 15.6267 119.463 15.3921 119.569 15.3921C119.697 15.3921 119.761 15.4881 119.761 15.6801C119.761 15.8934 119.612 16.1387 119.313 16.4161C119.015 16.6934 118.673 16.9281 118.289 17.1201C117.905 17.3121 117.585 17.4081 117.329 17.4081Z" fill="#F63D68"/>
</svg>
