<svg width="18" height="18" viewBox="0 0 18 18" fill="none" xmlns="http://www.w3.org/2000/svg">
<path fill-rule="evenodd" clip-rule="evenodd" d="M16.5 9.00024C16.5 4.85811 13.1421 1.50024 9 1.50024C4.85786 1.50024 1.5 4.85811 1.5 9.00024C1.5 13.1424 4.85786 16.5002 9 16.5002C13.1421 16.5002 16.5 13.1424 16.5 9.00024ZM6.35225 8.64799C6.13258 8.42832 6.13258 8.07217 6.35225 7.8525L8.60225 5.6025C8.82192 5.38283 9.17808 5.38283 9.39775 5.6025L11.6477 7.8525C11.8674 8.07217 11.8674 8.42832 11.6477 8.64799C11.4281 8.86766 11.0719 8.86766 10.8523 8.64799L9.5625 7.35824V12.0002C9.5625 12.3109 9.31066 12.5627 9 12.5627C8.68934 12.5627 8.4375 12.3109 8.4375 12.0002V7.35824L7.14775 8.64799C6.92808 8.86766 6.57192 8.86766 6.35225 8.64799Z" fill="#32D583"/>
</svg>
