<svg width="18" height="18" viewBox="0 0 18 18" fill="none" xmlns="http://www.w3.org/2000/svg">
<path fill-rule="evenodd" clip-rule="evenodd" d="M1.5 8.99976C1.5 13.1419 4.85786 16.4998 9 16.4998C13.1421 16.4998 16.5 13.1419 16.5 8.99976C16.5 4.85762 13.1421 1.49976 9 1.49976C4.85786 1.49976 1.5 4.85762 1.5 8.99976ZM11.6477 9.35201C11.8674 9.57168 11.8674 9.92783 11.6477 10.1475L9.39775 12.3975C9.17808 12.6172 8.82192 12.6172 8.60225 12.3975L6.35225 10.1475C6.13258 9.92783 6.13258 9.57168 6.35225 9.35201C6.57192 9.13234 6.92808 9.13234 7.14775 9.35201L8.4375 10.6418V5.99976C8.4375 5.6891 8.68934 5.43726 9 5.43726C9.31066 5.43726 9.5625 5.6891 9.5625 5.99976V10.6418L10.8523 9.35201C11.0719 9.13234 11.4281 9.13234 11.6477 9.35201Z" fill="#C42929"/>
</svg>
