<svg width="26" height="25" viewBox="0 0 26 25" fill="none" xmlns="http://www.w3.org/2000/svg">
<path d="M11.6516 0.755045C11.9059 -0.251636 13.3362 -0.251636 13.5906 0.755046L14.9797 6.25225C15.1324 6.85649 15.7946 7.17538 16.3622 6.91802L21.5262 4.5766C22.4718 4.14782 23.3636 5.26607 22.7351 6.09261L19.3033 10.6061C18.9261 11.1022 19.0897 11.8187 19.6448 12.1021L24.695 14.6796C25.6199 15.1516 25.3016 16.546 24.2636 16.57L18.5951 16.701C17.972 16.7154 17.5138 17.29 17.6384 17.9007L18.772 23.4562C18.9796 24.4735 17.691 25.0941 17.025 24.2975L13.3883 19.9474C12.9886 19.4692 12.2536 19.4692 11.8539 19.9474L8.21721 24.2975C7.55124 25.0941 6.26258 24.4735 6.47018 23.4562L7.60381 17.9007C7.72841 17.29 7.27016 16.7154 6.6471 16.701L0.978622 16.57C-0.0594246 16.546 -0.377695 15.1516 0.547143 14.6796L5.59742 12.1021C6.15253 11.8187 6.31608 11.1022 5.93887 10.6061L2.50706 6.09261C1.8786 5.26607 2.77038 4.14782 3.71604 4.5766L8.88001 6.91802C9.44761 7.17538 10.1098 6.85649 10.2625 6.25225L11.6516 0.755045Z" fill="#F63D68"/>
</svg>
