<svg width="24" height="24" viewBox="0 0 24 24" fill="none" xmlns="http://www.w3.org/2000/svg">
<path opacity="0.987" fill-rule="evenodd" clip-rule="evenodd" d="M10.8134 1.59161C11.9009 1.47011 12.5444 1.47011 13.7129 1.59161C15.7813 1.89776 17.6987 2.85384 19.1879 4.32161C18.1816 5.27282 17.1885 6.23791 16.2089 7.21661C14.3329 5.62661 12.2389 5.25961 9.92687 6.11561C8.23087 6.89561 7.04987 8.15961 6.38387 9.90761C5.29554 9.09736 4.22137 8.26823 3.16188 7.42061C3.08824 7.38186 3.00415 7.36766 2.92188 7.38011C4.60487 4.13511 7.23488 2.20511 10.8119 1.59011" fill="#F44336"/>
<path opacity="0.997" fill-rule="evenodd" clip-rule="evenodd" d="M2.91889 7.38003C3.00389 7.36703 3.08439 7.38053 3.16039 7.42053C4.21989 8.26815 5.29405 9.09727 6.38239 9.90753C6.21113 10.5886 6.10317 11.2841 6.05989 11.985C6.09689 12.663 6.20439 13.3285 6.38239 13.9815L2.99989 16.674C1.52689 13.596 1.49989 10.498 2.91889 7.38003Z" fill="#FFC107"/>
<path opacity="0.999" fill-rule="evenodd" clip-rule="evenodd" d="M19.0274 19.9351C17.9742 19.0063 16.8715 18.135 15.7244 17.3251C16.8744 16.5131 17.5724 15.3991 17.8184 13.9831H12.1829V10.0696C15.4329 10.0426 18.6814 10.0701 21.9284 10.1521C22.5444 13.4971 21.8329 16.5131 19.7939 19.2001C19.5514 19.4578 19.2946 19.7031 19.0274 19.9351Z" fill="#448AFF"/>
<path opacity="0.993" fill-rule="evenodd" clip-rule="evenodd" d="M6.3825 13.9832C7.6125 17.0402 9.8675 18.4672 13.1475 18.2642C14.0682 18.1576 14.951 17.8359 15.7245 17.3252C16.8725 18.1372 17.9735 19.0072 19.0275 19.9352C17.3575 21.4358 15.2282 22.3263 12.987 22.4612C12.4778 22.5019 11.9662 22.5019 11.457 22.4612C7.639 22.0112 4.82 20.0822 3 16.6742L6.3825 13.9832Z" fill="#43A047"/>
</svg>
