<svg width="40" height="40" viewBox="0 0 40 40" fill="none" xmlns="http://www.w3.org/2000/svg">
<rect width="40" height="40" rx="8" fill="#2E90FA"/>
<path d="M26.7088 11.4953C24.8165 10.5538 22.5009 10 20 10C17.4991 10 15.1835 10.5538 13.2912 11.4954C12.3632 11.9571 11.8992 12.1879 11.4496 12.9138C11 13.6397 11 14.3425 11 15.7481V19.2371C11 24.9205 15.5424 28.0804 18.173 29.4338C18.9067 29.8113 19.2735 30 20 30C20.7265 30 21.0933 29.8113 21.8269 29.4338C24.4576 28.0804 29 24.9205 29 19.2371V15.7481C29 14.3425 29 13.6397 28.5504 12.9138C28.1008 12.1879 27.6368 11.9571 26.7088 11.4953Z" stroke="#FCFCFD" stroke-width="1.5" stroke-linecap="round" stroke-linejoin="round"/>
<path d="M20 17V18M19 17.5C19 17.7652 19.1054 18.0196 19.2929 18.2071C19.4804 18.3947 19.7348 18.5 20 18.5C20.2652 18.5 20.5196 18.3947 20.7071 18.2071C20.8946 18.0196 21 17.7652 21 17.5C21 17.2348 20.8946 16.9804 20.7071 16.7929C20.5196 16.6054 20.2652 16.5 20 16.5C19.7348 16.5 19.4804 16.6054 19.2929 16.7929C19.1054 16.9804 19 17.2348 19 17.5Z" stroke="#FCFCFD" stroke-width="1.5" stroke-linecap="round" stroke-linejoin="round"/>
<path d="M20.75 22H19.25L20 18.5L20.75 22Z" stroke="#FCFCFD" stroke-width="1.5" stroke-linecap="round" stroke-linejoin="round"/>
</svg>
