<svg width="250" height="250" viewBox="0 0 250 250" fill="none" xmlns="http://www.w3.org/2000/svg">
<g clip-path="url(#clip0_1_367)">
<path d="M250 0H0V250H250V0Z" fill="white"/>
<path d="M30 20H20V30H30V20Z" fill="black"/>
<path d="M40 20H30V30H40V20Z" fill="black"/>
<path d="M50 20H40V30H50V20Z" fill="black"/>
<path d="M60 20H50V30H60V20Z" fill="black"/>
<path d="M70 20H60V30H70V20Z" fill="black"/>
<path d="M80 20H70V30H80V20Z" fill="black"/>
<path d="M90 20H80V30H90V20Z" fill="black"/>
<path d="M120 20H110V30H120V20Z" fill="black"/>
<path d="M130 20H120V30H130V20Z" fill="black"/>
<path d="M150 20H140V30H150V20Z" fill="black"/>
<path d="M170 20H160V30H170V20Z" fill="black"/>
<path d="M180 20H170V30H180V20Z" fill="black"/>
<path d="M190 20H180V30H190V20Z" fill="black"/>
<path d="M200 20H190V30H200V20Z" fill="black"/>
<path d="M210 20H200V30H210V20Z" fill="black"/>
<path d="M220 20H210V30H220V20Z" fill="black"/>
<path d="M230 20H220V30H230V20Z" fill="black"/>
<path d="M30 30H20V40H30V30Z" fill="black"/>
<path d="M90 30H80V40H90V30Z" fill="black"/>
<path d="M110 30H100V40H110L110 30Z" fill="black"/>
<path d="M140 30H130L130 40H140V30Z" fill="black"/>
<path d="M170 30H160V40H170V30Z" fill="black"/>
<path d="M230 30H220V40H230V30Z" fill="black"/>
<path d="M30 40H20V50H30V40Z" fill="black"/>
<path d="M50 40H40V50H50V40Z" fill="black"/>
<path d="M60 40H50V50H60V40Z" fill="black"/>
<path d="M70 40H60V50H70V40Z" fill="black"/>
<path d="M90 40H80V50H90V40Z" fill="black"/>
<path d="M110 40H100V50H110V40Z" fill="black"/>
<path d="M140 40H130V50H140V40Z" fill="black"/>
<path d="M170 40H160V50H170V40Z" fill="black"/>
<path d="M190 40H180V50H190V40Z" fill="black"/>
<path d="M200 40H190V50H200V40Z" fill="black"/>
<path d="M210 40H200V50H210V40Z" fill="black"/>
<path d="M230 40H220V50H230V40Z" fill="black"/>
<path d="M30 50H20V60H30V50Z" fill="black"/>
<path d="M50 50H40V60H50V50Z" fill="black"/>
<path d="M60 50H50V60H60V50Z" fill="black"/>
<path d="M70 50H60V60H70V50Z" fill="black"/>
<path d="M90 50H80V60H90V50Z" fill="black"/>
<path d="M110 50H100V60H110V50Z" fill="black"/>
<path d="M120 50H110V60H120V50Z" fill="black"/>
<path d="M130 50H120V60H130L130 50Z" fill="black"/>
<path d="M170 50H160V60H170V50Z" fill="black"/>
<path d="M190 50H180V60H190V50Z" fill="black"/>
<path d="M200 50H190V60H200V50Z" fill="black"/>
<path d="M210 50H200V60H210V50Z" fill="black"/>
<path d="M230 50H220V60H230V50Z" fill="black"/>
<path d="M30 60H20V70H30V60Z" fill="black"/>
<path d="M50 60H40V70H50V60Z" fill="black"/>
<path d="M60 60H50V70H60V60Z" fill="black"/>
<path d="M70 60H60V70H70V60Z" fill="black"/>
<path d="M90 60H80V70H90V60Z" fill="black"/>
<path d="M110 60H100V70H110V60Z" fill="black"/>
<path d="M120 60H110V70H120V60Z" fill="black"/>
<path d="M170 60H160V70H170V60Z" fill="black"/>
<path d="M190 60H180V70H190V60Z" fill="black"/>
<path d="M200 60H190V70H200V60Z" fill="black"/>
<path d="M210 60H200V70H210V60Z" fill="black"/>
<path d="M230 60H220V70H230V60Z" fill="black"/>
<path d="M30 70H20V80H30V70Z" fill="black"/>
<path d="M90 70H80V80H90V70Z" fill="black"/>
<path d="M110 70H100V80H110V70Z" fill="black"/>
<path d="M130 70H120L120 80H130V70Z" fill="black"/>
<path d="M170 70H160V80H170V70Z" fill="black"/>
<path d="M230 70H220V80H230V70Z" fill="black"/>
<path d="M30 80H20V90H30V80Z" fill="black"/>
<path d="M40 80H30V90H40V80Z" fill="black"/>
<path d="M50 80H40V90H50V80Z" fill="black"/>
<path d="M60 80H50V90H60V80Z" fill="black"/>
<path d="M70 80H60V90H70V80Z" fill="black"/>
<path d="M80 80H70V90H80V80Z" fill="black"/>
<path d="M90 80H80V90H90V80Z" fill="black"/>
<path d="M110 80H100V90H110V80Z" fill="black"/>
<path d="M130 80H120V90H130V80Z" fill="black"/>
<path d="M150 80H140V90H150V80Z" fill="black"/>
<path d="M170 80H160V90H170V80Z" fill="black"/>
<path d="M180 80H170V90H180V80Z" fill="black"/>
<path d="M190 80H180V90H190V80Z" fill="black"/>
<path d="M200 80H190V90H200V80Z" fill="black"/>
<path d="M210 80H200V90H210V80Z" fill="black"/>
<path d="M220 80H210V90H220V80Z" fill="black"/>
<path d="M230 80H220V90H230V80Z" fill="black"/>
<path d="M110 90H100V100H110V90Z" fill="black"/>
<path d="M130 90H120V100H130V90Z" fill="black"/>
<path d="M150 90H140V100H150V90Z" fill="black"/>
<path d="M30 100H20V110H30V100Z" fill="black"/>
<path d="M70 100H60V110H70V100Z" fill="black"/>
<path d="M80 100H70V110H80V100Z" fill="black"/>
<path d="M90 100H80V110H90V100Z" fill="black"/>
<path d="M140 100H130L130 110H140V100Z" fill="black"/>
<path d="M150 100H140V110H150V100Z" fill="black"/>
<path d="M160 100L150 100V110H160V100Z" fill="black"/>
<path d="M170 100H160V110H170V100Z" fill="black"/>
<path d="M180 100H170V110H180V100Z" fill="black"/>
<path d="M190 100H180V110H190V100Z" fill="black"/>
<path d="M200 100H190V110H200V100Z" fill="black"/>
<path d="M210 100H200V110H210V100Z" fill="black"/>
<path d="M220 100H210V110H220V100Z" fill="black"/>
<path d="M60 110L50 110V120H60V110Z" fill="black"/>
<path d="M70 110H60V120H70V110Z" fill="black"/>
<path d="M80 110H70V120H80V110Z" fill="black"/>
<path d="M110 110H100V120H110V110Z" fill="black"/>
<path d="M120 110H110V120H120V110Z" fill="black"/>
<path d="M150 110H140V120H150V110Z" fill="black"/>
<path d="M170 110H160V120H170V110Z" fill="black"/>
<path d="M180 110H170V120H180V110Z" fill="black"/>
<path d="M190 110H180V120H190V110Z" fill="black"/>
<path d="M200 110H190V120H200V110Z" fill="black"/>
<path d="M210 110H200V120H210V110Z" fill="black"/>
<path d="M230 110L220 110V120H230V110Z" fill="black"/>
<path d="M30 120H20V130H30V120Z" fill="black"/>
<path d="M60 120H50V130H60V120Z" fill="black"/>
<path d="M80 120H70V130H80V120Z" fill="black"/>
<path d="M90 120L80 120V130H90V120Z" fill="black"/>
<path d="M100 120L90 120V130H100L100 120Z" fill="black"/>
<path d="M110 120H100L100 130H110V120Z" fill="black"/>
<path d="M140 120L130 120V130H140V120Z" fill="black"/>
<path d="M150 120H140V130H150V120Z" fill="black"/>
<path d="M160 120H150V130H160V120Z" fill="black"/>
<path d="M170 120H160V130H170V120Z" fill="black"/>
<path d="M200 120H190V130H200V120Z" fill="black"/>
<path d="M230 120H220V130H230V120Z" fill="black"/>
<path d="M30 130H20V140H30V130Z" fill="black"/>
<path d="M70 130H60V140H70V130Z" fill="black"/>
<path d="M80 130H70V140H80V130Z" fill="black"/>
<path d="M100 130H90V140H100V130Z" fill="black"/>
<path d="M160 130H150V140H160V130Z" fill="black"/>
<path d="M190 130L180 130V140H190V130Z" fill="black"/>
<path d="M200 130H190V140H200V130Z" fill="black"/>
<path d="M220 130L210 130V140H220V130Z" fill="black"/>
<path d="M40 140H30V150H40V140Z" fill="black"/>
<path d="M60 140H50V150H60V140Z" fill="black"/>
<path d="M90 140H80V150H90V140Z" fill="black"/>
<path d="M110 140H100L100 150H110V140Z" fill="black"/>
<path d="M120 140H110V150H120V140Z" fill="black"/>
<path d="M160 140H150V150H160V140Z" fill="black"/>
<path d="M200 140H190V150H200V140Z" fill="black"/>
<path d="M210 140H200V150H210V140Z" fill="black"/>
<path d="M220 140H210V150H220V140Z" fill="black"/>
<path d="M230 140H220V150H230V140Z" fill="black"/>
<path d="M120 150H110L110 160H120V150Z" fill="black"/>
<path d="M140 150H130V160H140V150Z" fill="black"/>
<path d="M170 150H160V160H170V150Z" fill="black"/>
<path d="M190 150H180V160H190V150Z" fill="black"/>
<path d="M200 150H190V160H200V150Z" fill="black"/>
<path d="M220 150H210V160H220V150Z" fill="black"/>
<path d="M30 160H20V170H30V160Z" fill="black"/>
<path d="M40 160H30V170H40V160Z" fill="black"/>
<path d="M50 160H40V170H50V160Z" fill="black"/>
<path d="M60 160H50V170H60V160Z" fill="black"/>
<path d="M70 160H60V170H70V160Z" fill="black"/>
<path d="M80 160H70V170H80V160Z" fill="black"/>
<path d="M90 160H80V170H90V160Z" fill="black"/>
<path d="M120 160H110V170H120V160Z" fill="black"/>
<path d="M130 160H120V170H130L130 160Z" fill="black"/>
<path d="M140 160H130L130 170H140V160Z" fill="black"/>
<path d="M200 160H190V170H200V160Z" fill="black"/>
<path d="M210 160H200V170H210V160Z" fill="black"/>
<path d="M220 160H210V170H220V160Z" fill="black"/>
<path d="M30 170H20V180H30V170Z" fill="black"/>
<path d="M90 170H80V180H90V170Z" fill="black"/>
<path d="M110 170H100V180H110L110 170Z" fill="black"/>
<path d="M120 170H110L110 180H120V170Z" fill="black"/>
<path d="M130 170H120V180H130V170Z" fill="black"/>
<path d="M140 170H130V180H140V170Z" fill="black"/>
<path d="M180 170H170V180H180V170Z" fill="black"/>
<path d="M190 170H180V180H190V170Z" fill="black"/>
<path d="M30 180H20V190H30V180Z" fill="black"/>
<path d="M50 180H40V190H50V180Z" fill="black"/>
<path d="M60 180H50V190H60V180Z" fill="black"/>
<path d="M70 180H60V190H70V180Z" fill="black"/>
<path d="M90 180H80V190H90V180Z" fill="black"/>
<path d="M110 180H100V190H110V180Z" fill="black"/>
<path d="M160 180H150V190H160V180Z" fill="black"/>
<path d="M200 180H190V190H200V180Z" fill="black"/>
<path d="M220 180H210V190H220V180Z" fill="black"/>
<path d="M30 190H20V200H30V190Z" fill="black"/>
<path d="M50 190H40V200H50V190Z" fill="black"/>
<path d="M60 190H50V200H60V190Z" fill="black"/>
<path d="M70 190H60V200H70V190Z" fill="black"/>
<path d="M90 190H80V200H90V190Z" fill="black"/>
<path d="M140 190H130V200H140V190Z" fill="black"/>
<path d="M170 190H160V200H170V190Z" fill="black"/>
<path d="M180 190H170V200H180V190Z" fill="black"/>
<path d="M190 190H180V200H190V190Z" fill="black"/>
<path d="M200 190H190V200H200V190Z" fill="black"/>
<path d="M220 190H210V200H220V190Z" fill="black"/>
<path d="M30 200H20V210H30V200Z" fill="black"/>
<path d="M50 200H40V210H50V200Z" fill="black"/>
<path d="M60 200H50V210H60V200Z" fill="black"/>
<path d="M70 200H60V210H70V200Z" fill="black"/>
<path d="M90 200H80V210H90V200Z" fill="black"/>
<path d="M130 200H120V210H130L130 200Z" fill="black"/>
<path d="M140 200H130L130 210H140V200Z" fill="black"/>
<path d="M160 200H150V210H160V200Z" fill="black"/>
<path d="M170 200H160V210H170V200Z" fill="black"/>
<path d="M180 200H170V210H180V200Z" fill="black"/>
<path d="M200 200H190V210H200V200Z" fill="black"/>
<path d="M210 200H200V210H210V200Z" fill="black"/>
<path d="M220 200H210V210H220V200Z" fill="black"/>
<path d="M30 210H20V220H30V210Z" fill="black"/>
<path d="M90 210H80V220H90V210Z" fill="black"/>
<path d="M130 210H120V220H130V210Z" fill="black"/>
<path d="M140 210H130V220H140V210Z" fill="black"/>
<path d="M170 210H160V220H170V210Z" fill="black"/>
<path d="M180 210H170V220H180V210Z" fill="black"/>
<path d="M190 210H180V220H190V210Z" fill="black"/>
<path d="M230 210H220V220H230V210Z" fill="black"/>
<path d="M30 220H20V230H30V220Z" fill="black"/>
<path d="M40 220H30V230H40V220Z" fill="black"/>
<path d="M50 220H40V230H50V220Z" fill="black"/>
<path d="M60 220H50V230H60V220Z" fill="black"/>
<path d="M70 220H60V230H70V220Z" fill="black"/>
<path d="M80 220H70V230H80V220Z" fill="black"/>
<path d="M90 220H80V230H90V220Z" fill="black"/>
<path d="M110 220H100V230H110V220Z" fill="black"/>
<path d="M120 220H110V230H120L120 220Z" fill="black"/>
<path d="M140 220H130L130 230H140V220Z" fill="black"/>
<path d="M180 220H170V230H180V220Z" fill="black"/>
</g>
<defs>
<clipPath id="clip0_1_367">
<rect width="250" height="250" fill="white"/>
</clipPath>
</defs>
</svg>
