<svg width="48" height="26" viewBox="0 0 48 26" fill="none" xmlns="http://www.w3.org/2000/svg">
<path d="M2.68891 17.0239C0.896906 17.0239 0.000906244 16.2239 0.000906244 14.6239C0.000906244 14.0052 0.18224 13.3012 0.544906 12.5119C0.95024 11.5946 1.45157 11.1359 2.04891 11.1359C2.21957 11.1359 2.30491 11.2106 2.30491 11.3599C2.30491 11.3172 2.17691 11.4666 1.92091 11.8079C1.68624 12.1492 1.45157 12.5546 1.21691 13.0239C0.98224 13.4932 0.864906 13.9199 0.864906 14.3039C0.864906 15.4559 1.52624 16.0319 2.84891 16.0319C4.23557 16.0319 5.64357 15.0292 7.07291 13.0239C7.41424 12.5332 7.80891 11.8826 8.25691 11.0719C8.72624 10.2612 9.23824 9.29058 9.79291 8.15991C9.70757 8.11725 9.62224 8.09591 9.53691 8.09591L9.34491 8.12791C9.25957 8.14925 9.18491 8.15991 9.12091 8.15991C8.82224 8.15991 8.67291 7.96791 8.67291 7.58391C8.67291 7.09325 8.91824 6.84791 9.40891 6.84791C9.64357 6.84791 9.93157 6.95458 10.2729 7.16791C12.0009 4.37324 13.1742 2.97591 13.7929 2.97591C14.3262 2.97591 14.5929 3.27458 14.5929 3.87191C14.5929 4.29858 14.4756 4.51191 14.2409 4.51191C14.0702 4.51191 13.9849 4.39458 13.9849 4.15991C13.9849 4.09591 14.0062 3.99991 14.0489 3.87191C13.9422 3.76524 13.8569 3.71191 13.7929 3.71191C13.4942 3.71191 13.0356 4.35191 12.4169 5.63191L11.2329 8.09591H13.2169C14.5396 8.09591 15.7342 7.79725 16.8009 7.19991C18.1022 6.49591 18.7529 5.54658 18.7529 4.35191C18.7529 3.09324 17.9956 2.12258 16.4809 1.43991C15.3289 0.949245 14.0276 0.703912 12.5769 0.703912C9.82491 0.703912 7.43557 1.39725 5.40891 2.78391C5.15291 2.95458 4.90757 3.15724 4.67291 3.39191C4.45957 3.62658 4.25691 3.88258 4.06491 4.15991C3.63824 4.82124 3.42491 5.41858 3.42491 5.95191C3.42491 6.99725 3.92624 7.51991 4.92891 7.51991C5.59024 7.51991 6.29424 7.22125 7.04091 6.62391C7.61691 6.17591 8.01157 5.65325 8.22491 5.05591C8.31024 4.77858 8.43824 4.63991 8.60891 4.63991C8.80091 4.63991 8.89691 4.74658 8.89691 4.95991C8.89691 5.85591 8.39557 6.67724 7.39291 7.42391C6.60357 8.02125 5.75024 8.31991 4.83291 8.31991C3.25424 8.31991 2.46491 7.51991 2.46491 5.91991C2.46491 3.95724 3.67024 2.41058 6.08091 1.27991C7.91557 0.426579 9.96357 -8.7738e-05 12.2249 -8.7738e-05C14.0809 -8.7738e-05 15.7236 0.287912 17.1529 0.863912C19.0516 1.63191 20.0009 2.79458 20.0009 4.35191C20.0009 5.86658 19.1582 7.01858 17.4729 7.80791C16.1289 8.42658 14.6249 8.73591 12.9609 8.73591C12.6836 8.73591 12.3956 8.72525 12.0969 8.70391C11.7982 8.68258 11.4782 8.65058 11.1369 8.60791C12.4809 12.0426 14.0062 14.3679 15.7129 15.5839C16.1396 15.8826 16.4916 16.0319 16.7689 16.0319C17.3236 16.0319 17.6542 15.4026 17.7609 14.1439C17.7822 13.6106 17.8569 13.3439 17.9849 13.3439C18.1342 13.3439 18.2729 13.4932 18.4009 13.7919C18.5502 14.0906 18.6249 14.3252 18.6249 14.4959C18.6249 15.1359 18.4009 15.7012 17.9529 16.1919C17.5049 16.7039 16.9609 16.9599 16.3209 16.9599C14.7422 16.9599 13.2916 15.6479 11.9689 13.0239C11.6702 12.4052 11.4036 11.7866 11.1689 11.1679C10.9342 10.5492 10.7316 9.94125 10.5609 9.34391C10.2836 9.94125 10.0276 10.4639 9.79291 10.9119C9.57957 11.3386 9.39824 11.6906 9.24891 11.9679C8.97157 12.4586 8.70491 12.9172 8.44891 13.3439C8.19291 13.7492 7.92624 14.1119 7.64891 14.4319C6.24091 16.1599 4.58757 17.0239 2.68891 17.0239ZM20.3599 16.6719C19.3999 16.6719 18.9199 16.1172 18.9199 15.0079C18.9199 13.4079 19.5172 11.4346 20.7119 9.08791C21.7146 7.12524 22.6212 6.14391 23.4319 6.14391C23.6026 6.14391 23.7946 6.20791 24.0079 6.33591L24.3599 6.52791L24.4239 6.39991C24.4452 6.22924 24.5412 5.99458 24.7119 5.69591C24.8399 5.65324 24.9359 5.63191 24.9999 5.63191C25.5332 5.63191 25.7999 6.13324 25.7999 7.13591C25.7999 7.24258 25.7999 7.38124 25.7999 7.55191C25.7999 7.70124 25.7892 7.88258 25.7679 8.09591C25.7466 8.30925 25.7252 8.50125 25.7039 8.67191C25.7039 8.82125 25.7039 8.94924 25.7039 9.05591C25.7039 9.35458 25.9279 9.50391 26.3759 9.50391C26.4612 9.50391 26.5999 9.47191 26.7919 9.40791C26.9839 9.34391 27.1332 9.31191 27.2399 9.31191C27.4319 9.31191 27.5279 9.37591 27.5279 9.50391C27.5279 9.84525 27.1546 10.0159 26.4079 10.0159C25.9599 10.0159 25.6506 9.94125 25.4799 9.79191C25.0959 11.2212 24.4986 12.6186 23.6879 13.9839C22.5999 15.7759 21.4906 16.6719 20.3599 16.6719ZM20.5519 15.9039C21.6399 15.9039 22.7919 14.6666 24.0079 12.1919C24.5626 11.0399 24.8612 10.1652 24.9039 9.56791C24.5199 9.35458 24.2852 8.89591 24.1999 8.19191C24.0932 7.57324 23.9652 7.26391 23.8159 7.26391C23.2399 7.26391 22.5466 8.06391 21.7359 9.66391C20.5626 11.9252 19.9759 13.7172 19.9759 15.0399C19.9759 15.6159 20.1679 15.9039 20.5519 15.9039ZM26.6454 16.9919C25.6214 16.9919 25.1094 16.6719 25.1094 16.0319C25.1094 15.6052 25.3867 15.2106 25.9414 14.8479C26.3254 14.6132 26.8054 14.4426 27.3814 14.3359C27.7867 14.2506 28.1494 14.1759 28.4694 14.1119C28.7894 14.0479 29.0667 13.9732 29.3014 13.8879L30.3574 13.5359C30.3787 13.4719 30.3894 13.4079 30.3894 13.3439C30.4107 13.2799 30.4214 13.2159 30.4214 13.1519C30.4214 12.6612 30.1334 11.9572 29.5574 11.0399C28.9601 10.1226 28.6614 9.45058 28.6614 9.02391C28.6614 8.51191 28.8321 8.04258 29.1734 7.61591C29.5147 7.18925 29.9414 6.84791 30.4534 6.59191C30.9867 6.31458 31.5094 6.17591 32.0214 6.17591C32.8747 6.17591 33.3014 6.46391 33.3014 7.03991C33.3014 7.76524 33.0881 8.12791 32.6614 8.12791C32.4907 8.12791 32.3841 7.94658 32.3414 7.58391C32.3201 7.24258 32.2134 7.07191 32.0214 7.07191C31.7867 7.07191 31.5201 7.18925 31.2214 7.42391C30.9227 7.63725 30.6667 7.90391 30.4534 8.22391C30.2614 8.52258 30.1654 8.79991 30.1654 9.05591C30.1654 9.29058 30.3574 9.79191 30.7414 10.5599C31.1041 11.3492 31.2854 11.9359 31.2854 12.3199C31.2854 12.3626 31.2747 12.4266 31.2534 12.5119C31.2534 12.5759 31.2427 12.6612 31.2214 12.7679C31.2001 12.8532 31.1787 12.9386 31.1574 13.0239C31.1574 13.1092 31.1574 13.1732 31.1574 13.2159C31.2214 13.1519 31.3387 13.0666 31.5094 12.9599C31.7014 12.8532 31.8934 12.7572 32.0854 12.6719C32.2774 12.5652 32.4054 12.5119 32.4694 12.5119C32.5121 12.5119 32.5334 12.5226 32.5334 12.5439C32.5334 12.6506 32.4374 12.7892 32.2454 12.9599C32.0747 13.1306 31.8721 13.2906 31.6374 13.4399C31.4241 13.5892 31.2321 13.6959 31.0614 13.7599V13.8239C31.0187 14.0159 30.9014 14.2612 30.7094 14.5599C30.5174 14.8586 30.3041 15.1466 30.0694 15.4239C29.8347 15.7012 29.6107 15.9146 29.3974 16.0639C28.5867 16.6826 27.6694 16.9919 26.6454 16.9919ZM26.6134 16.4159C27.0401 16.4159 27.4881 16.3199 27.9574 16.1279C28.4267 15.9359 28.8534 15.6799 29.2374 15.3599C29.6427 15.0186 29.9307 14.6666 30.1014 14.3039C29.6747 14.4532 29.2801 14.6026 28.9174 14.7519C28.5547 14.8799 28.2241 14.9972 27.9254 15.1039C26.8374 15.5092 26.2934 15.8932 26.2934 16.2559C26.2934 16.3626 26.4001 16.4159 26.6134 16.4159ZM35.1257 16.4799C33.9737 16.4799 33.3977 15.7439 33.3977 14.2719V14.1119C33.3977 12.0852 34.2723 10.0692 36.0217 8.06391C36.8537 7.10391 37.5683 6.62391 38.1657 6.62391C38.3363 6.62391 38.4643 6.66658 38.5497 6.75191C38.5283 6.17591 38.7417 5.88791 39.1897 5.88791C39.4883 5.88791 39.6377 6.46391 39.6377 7.61591C39.6377 10.4319 38.923 11.8399 37.4937 11.8399C36.6403 11.8399 35.9043 11.5306 35.2857 10.9119C34.6243 12.2559 34.2937 13.4719 34.2937 14.5599C34.2937 15.4346 34.5817 15.8719 35.1577 15.8719C35.4137 15.8719 35.723 15.7332 36.0857 15.4559C36.4697 15.1572 36.843 14.8266 37.2057 14.4639C37.5683 14.0799 37.867 13.7492 38.1017 13.4719C38.3577 13.1732 38.4857 13.0239 38.4857 13.0239C38.571 13.0239 38.6137 13.0879 38.6137 13.2159C38.6137 13.4719 38.4963 13.7812 38.2617 14.1439C38.027 14.4852 37.7283 14.8266 37.3657 15.1679C37.0243 15.5092 36.6723 15.8079 36.3097 16.0639C35.947 16.2986 35.6377 16.4372 35.3817 16.4799H35.1257ZM37.2377 11.1679C37.6643 11.1679 38.0057 10.8266 38.2617 10.1439C38.475 9.63191 38.5817 9.09858 38.5817 8.54391V8.03191C38.5817 7.79725 38.571 7.63724 38.5497 7.55191C38.5497 7.44524 38.5497 7.42391 38.5497 7.48791C37.2697 7.95724 36.2883 8.91725 35.6057 10.3679C36.331 10.9012 36.875 11.1679 37.2377 11.1679ZM37.4672 25.5679C36.8272 25.5679 36.5072 25.1946 36.5072 24.4479C36.5072 23.6372 36.7845 22.6452 37.3392 21.4719C37.8512 20.4052 38.4165 19.5306 39.0352 18.8479C39.8458 17.9732 40.6352 17.2479 41.4032 16.6719C42.1925 16.1172 42.9605 15.7012 43.7072 15.4239C43.7498 15.2106 43.9418 14.6239 44.2832 13.6639C44.6245 12.6826 45.0938 11.3172 45.6912 9.56791C43.0032 14.1119 41.0298 16.3839 39.7712 16.3839C39.4298 16.3839 39.2592 16.2239 39.2592 15.9039C39.2592 15.5626 39.4298 14.8692 39.7712 13.8239C40.1125 12.7786 40.6352 11.3706 41.3392 9.59991L42.2352 7.32791C42.4272 6.85858 42.7152 6.62391 43.0992 6.62391C43.2912 6.62391 43.4618 6.69858 43.6112 6.84791C43.5472 7.14658 43.3658 7.64791 43.0672 8.35191C42.7898 9.05591 42.4058 9.96258 41.9152 11.0719C40.9978 13.0986 40.5392 14.3786 40.5392 14.9119C40.5392 15.1252 40.5925 15.2319 40.6992 15.2319C40.9338 15.2319 41.6378 14.3892 42.8112 12.7039C43.3018 11.9786 43.7178 11.3812 44.0592 10.9119C44.4005 10.4212 44.6458 10.0372 44.7952 9.75991C45.0085 9.39725 45.2218 9.02391 45.4352 8.63991C45.6698 8.23458 45.8938 7.81858 46.1072 7.39191C46.4485 6.66658 46.9072 6.30391 47.4832 6.30391C47.7178 6.30391 47.8352 6.39991 47.8352 6.59191C47.8352 6.71991 47.3658 8.09591 46.4272 10.7199C46.0218 11.8506 45.6805 12.7999 45.4032 13.5679C45.1258 14.3146 44.9018 14.8799 44.7312 15.2639C44.9018 15.1999 45.0725 15.1679 45.2432 15.1679C45.8192 15.1679 46.1072 15.5626 46.1072 16.3519C46.1072 16.6719 46.0538 16.8319 45.9472 16.8319C45.8192 16.8319 45.7338 16.6506 45.6912 16.2879C45.6698 15.9039 45.4778 15.7119 45.1152 15.7119C44.9232 15.7119 44.6992 15.7652 44.4432 15.8719L43.2912 18.9119C43.0778 19.4879 42.8432 20.0106 42.5872 20.4799C42.3525 20.9706 42.1178 21.4186 41.8832 21.8239C40.3898 24.3199 38.9178 25.5679 37.4672 25.5679ZM37.4352 24.8959C38.0325 24.8959 38.9285 24.1386 40.1232 22.6239C41.0192 21.4719 42.1178 19.3279 43.4192 16.1919C41.8405 16.8746 40.5392 17.8666 39.5152 19.1679C37.9578 21.1306 37.1792 22.8692 37.1792 24.3839C37.1792 24.7252 37.2645 24.8959 37.4352 24.8959Z" fill="#F63D68"/>
</svg>
